<?xml version="1.0" encoding="UTF-8" standalone="no"?>
<svg
    xmlns:dc="http://purl.org/dc/elements/1.1/"
    xmlns:cc="http://creativecommons.org/ns#"
    xmlns:rdf="http://www.w3.org/1999/02/22-rdf-syntax-ns#"
    xmlns:svg="http://www.w3.org/2000/svg"
    xmlns="http://www.w3.org/2000/svg"
    xmlns:sodipodi="http://sodipodi.sourceforge.net/DTD/sodipodi-0.dtd"
    xmlns:inkscape="http://www.inkscape.org/namespaces/inkscape"
   version="1.1"
   id="svg5327"
   x="0px"
   y="0px"
   width="1200px"
   height="45px"
   viewBox="-97.2 277.5 1200 45"
   enable-background="new -97.2 277.5 1200 45"
   xml:space="preserve"
   sodipodi:docname="directions.svg"
   inkscape:version="0.92.4 (5da689c313, 2019-01-14)">
    <metadata
   id="metadata28">
        <rdf:RDF>
            <cc:Work
       rdf:about="">
                <dc:format>image/svg+xml</dc:format>
                <dc:type
         rdf:resource="http://purl.org/dc/dcmitype/StillImage" />
            </cc:Work>
        </rdf:RDF>
    </metadata>
    <defs
   id="defs26">
        <marker
     inkscape:stockid="Arrow2Mend"
     orient="auto"
     refY="0.0"
     refX="0.0"
     id="marker4525"
     style="overflow:visible;"
     inkscape:isstock="true">
            <path
       id="path4523"
       style="fill-rule:evenodd;stroke-width:0.625;stroke-linejoin:round;stroke:#03a9f5;stroke-opacity:1;fill:#03a9f5;fill-opacity:1"
       d="M 8.7185878,4.0337352 L -2.2072895,0.016013256 L 8.7185884,-4.0017078 C 6.9730900,-1.6296469 6.9831476,1.6157441 8.7185878,4.0337352 z "
       transform="scale(0.6) rotate(180) translate(0,0)" />
        </marker>
        <marker
     inkscape:isstock="true"
     style="overflow:visible;"
     id="marker4437"
     refX="0.0"
     refY="0.0"
     orient="auto"
     inkscape:stockid="Arrow2Mend">
            <path
       transform="scale(0.6) rotate(180) translate(0,0)"
       d="M 8.7185878,4.0337352 L -2.2072895,0.016013256 L 8.7185884,-4.0017078 C 6.9730900,-1.6296469 6.9831476,1.6157441 8.7185878,4.0337352 z "
       style="fill-rule:evenodd;stroke-width:0.625;stroke-linejoin:round;stroke:#03a9f5;stroke-opacity:1;fill:#03a9f5;fill-opacity:1"
       id="path4435" />
        </marker>
        <marker
     inkscape:stockid="Arrow2Mend"
     orient="auto"
     refY="0.0"
     refX="0.0"
     id="marker4019"
     style="overflow:visible;"
     inkscape:isstock="true">
            <path
       id="path4017"
       style="fill-rule:evenodd;stroke-width:0.625;stroke-linejoin:round;stroke:#03a9f5;stroke-opacity:1;fill:#03a9f5;fill-opacity:1"
       d="M 8.7185878,4.0337352 L -2.2072895,0.016013256 L 8.7185884,-4.0017078 C 6.9730900,-1.6296469 6.9831476,1.6157441 8.7185878,4.0337352 z "
       transform="scale(0.6) rotate(180) translate(0,0)" />
        </marker>
        <marker
     inkscape:stockid="Arrow1Mend"
     orient="auto"
     refY="0.0"
     refX="0.0"
     id="marker3943"
     style="overflow:visible;"
     inkscape:isstock="true">
            <path
       id="path3941"
       d="M 0.0,0.0 L 5.0,-5.0 L -12.5,0.0 L 5.0,5.0 L 0.0,0.0 z "
       style="fill-rule:evenodd;stroke:#03a9f5;stroke-width:1pt;stroke-opacity:1;fill:#03a9f5;fill-opacity:1"
       transform="scale(0.4) rotate(180) translate(10,0)" />
        </marker>
        <marker
     inkscape:stockid="Arrow2Mend"
     orient="auto"
     refY="0.0"
     refX="0.0"
     id="marker3807"
     style="overflow:visible;"
     inkscape:isstock="true"
     inkscape:collect="always">
            <path
       id="path3805"
       style="fill-rule:evenodd;stroke-width:0.625;stroke-linejoin:round;stroke:#03a9f5;stroke-opacity:1;fill:#03a9f5;fill-opacity:1"
       d="M 8.7185878,4.0337352 L -2.2072895,0.016013256 L 8.7185884,-4.0017078 C 6.9730900,-1.6296469 6.9831476,1.6157441 8.7185878,4.0337352 z "
       transform="scale(0.6) rotate(180) translate(0,0)" />
        </marker>
        <marker
     inkscape:isstock="true"
     style="overflow:visible"
     id="marker3635"
     refX="0.0"
     refY="0.0"
     orient="auto"
     inkscape:stockid="TriangleOutL">
            <path
       transform="scale(0.8)"
       style="fill-rule:evenodd;stroke:#03a9f5;stroke-width:1pt;stroke-opacity:1;fill:#03a9f5;fill-opacity:1"
       d="M 5.77,0.0 L -2.88,5.0 L -2.88,-5.0 L 5.77,0.0 z "
       id="path3633" />
        </marker>
        <marker
     inkscape:isstock="true"
     style="overflow:visible;"
     id="marker2927"
     refX="0.0"
     refY="0.0"
     orient="auto"
     inkscape:stockid="Arrow2Lend">
            <path
       transform="scale(1.1) rotate(180) translate(1,0)"
       d="M 8.7185878,4.0337352 L -2.2072895,0.016013256 L 8.7185884,-4.0017078 C 6.9730900,-1.6296469 6.9831476,1.6157441 8.7185878,4.0337352 z "
       style="fill-rule:evenodd;stroke-width:0.625;stroke-linejoin:round;stroke:#03a9f5;stroke-opacity:1;fill:#03a9f5;fill-opacity:1"
       id="path2925" />
        </marker>
        <marker
     inkscape:isstock="true"
     style="overflow:visible;"
     id="marker2453"
     refX="0.0"
     refY="0.0"
     orient="auto"
     inkscape:stockid="Arrow2Lend">
            <path
       transform="scale(1.1) rotate(180) translate(1,0)"
       d="M 8.7185878,4.0337352 L -2.2072895,0.016013256 L 8.7185884,-4.0017078 C 6.9730900,-1.6296469 6.9831476,1.6157441 8.7185878,4.0337352 z "
       style="fill-rule:evenodd;stroke-width:0.625;stroke-linejoin:round;stroke:#03a9f5;stroke-opacity:1;fill:#03a9f5;fill-opacity:1"
       id="path2451" />
        </marker>
        <marker
     inkscape:stockid="Arrow1Mend"
     orient="auto"
     refY="0.0"
     refX="0.0"
     id="Arrow1Mend"
     style="overflow:visible;"
     inkscape:isstock="true">
            <path
       id="path846"
       d="M 0.0,0.0 L 5.0,-5.0 L -12.5,0.0 L 5.0,5.0 L 0.0,0.0 z "
       style="fill-rule:evenodd;stroke:#03a9f5;stroke-width:1pt;stroke-opacity:1;fill:#03a9f5;fill-opacity:1"
       transform="scale(0.4) rotate(180) translate(10,0)" />
        </marker>
        <marker
     inkscape:stockid="Arrow2Mend"
     orient="auto"
     refY="0.0"
     refX="0.0"
     id="marker1147"
     style="overflow:visible;"
     inkscape:isstock="true">
            <path
       id="path1145"
       style="fill-rule:evenodd;stroke-width:0.625;stroke-linejoin:round;stroke:#03a9f5;stroke-opacity:1;fill:#03a9f5;fill-opacity:1"
       d="M 8.7185878,4.0337352 L -2.2072895,0.016013256 L 8.7185884,-4.0017078 C 6.9730900,-1.6296469 6.9831476,1.6157441 8.7185878,4.0337352 z "
       transform="scale(0.6) rotate(180) translate(0,0)" />
        </marker>
        <marker
     inkscape:stockid="Arrow2Mend"
     orient="auto"
     refY="0.0"
     refX="0.0"
     id="Arrow2Mend"
     style="overflow:visible;"
     inkscape:isstock="true">
            <path
       id="path864"
       style="fill-rule:evenodd;stroke-width:0.625;stroke-linejoin:round;stroke:#03a9f5;stroke-opacity:1;fill:#03a9f5;fill-opacity:1"
       d="M 8.7185878,4.0337352 L -2.2072895,0.016013256 L 8.7185884,-4.0017078 C 6.9730900,-1.6296469 6.9831476,1.6157441 8.7185878,4.0337352 z "
       transform="scale(0.6) rotate(180) translate(0,0)" />
        </marker>
        <marker
     inkscape:stockid="Arrow1Lend"
     orient="auto"
     refY="0.0"
     refX="0.0"
     id="Arrow1Lend"
     style="overflow:visible;"
     inkscape:isstock="true">
            <path
       id="path840"
       d="M 0.0,0.0 L 5.0,-5.0 L -12.5,0.0 L 5.0,5.0 L 0.0,0.0 z "
       style="fill-rule:evenodd;stroke:#03a9f5;stroke-width:1pt;stroke-opacity:1;fill:#03a9f5;fill-opacity:1"
       transform="scale(0.8) rotate(180) translate(12.5,0)" />
        </marker>
        <marker
     inkscape:stockid="Arrow2Mend"
     orient="auto"
     refY="0"
     refX="0"
     id="Arrow2Mend-4"
     style="overflow:visible"
     inkscape:isstock="true">
            <path
       inkscape:connector-curvature="0"
       id="path864-4"
       style="fill:#03a9f5;fill-opacity:1;fill-rule:evenodd;stroke:#03a9f5;stroke-width:0.625;stroke-linejoin:round;stroke-opacity:1"
       d="M 8.7185878,4.0337352 -2.2072895,0.01601326 8.7185884,-4.0017078 c -1.7454984,2.3720609 -1.7354408,5.6174519 -6e-7,8.035443 z"
       transform="scale(-0.6)" />
        </marker>
    </defs>
    <sodipodi:namedview
   showguides="true"
   showgrid="false"
   inkscape:cy="90.214101"
   borderopacity="1.0"
   inkscape:zoom="1.16"
   inkscape:cx="827.90729"
   id="base"
   fit-margin-left="0"
   pagecolor="#ffffff"
   fit-margin-top="0"
   bordercolor="#666666"
   inkscape:snap-bbox="true"
   inkscape:document-units="px"
   fit-margin-bottom="0"
   inkscape:current-layer="layer1_1_"
   inkscape:snap-nodes="true"
   inkscape:pageopacity="0"
   inkscape:window-maximized="1"
   inkscape:pageshadow="2"
   inkscape:window-y="-8"
   inkscape:guide-bbox="true"
   inkscape:window-x="1912"
   inkscape:window-width="1920"
   fit-margin-right="0"
   inkscape:window-height="1017">
        <inkscape:grid
   type="xygrid"
   empspacing="5"
   id="grid5368"
   visible="true"
   enabled="true"
   snapvisiblegridlinesonly="true"></inkscape:grid>
        <sodipodi:guide
   position="206,16"
   orientation="0,1"
   id="guide7926"
   inkscape:locked="false" />
        <sodipodi:guide
   position="280,48"
   orientation="1,0"
   id="guide3009"
   inkscape:locked="false" />
        <sodipodi:guide
   position="300,43"
   orientation="1,0"
   id="guide3011"
   inkscape:locked="false" />
    </sodipodi:namedview>
    <g
   id="layer1_1_"
   transform="translate(-3200,-992.36218)"
   inkscape:label="Layer 1"
   inkscape:groupmode="layer">
        <path
   id="path6002-6-5-5_1_"
   inkscape:connector-curvature="0"
   sodipodi:nodetypes="cccccccc"
   fill="#5A77A2"
   d="M3144.2,1289.4   l-18.6-18.6l-18.6,18.6h15.3v23.6h6.8v-23.6H3144.2z"
   style="fill:#03a9f5;fill-opacity:1" />
        <path
   id="rect4998_1_"
   inkscape:connector-curvature="0"
   fill="#5A77A2"
   d="M3393,1272.5c-5.7,0-10.5,2-13.1,5.4   c-2.7,3.5-3.7,7.4-3.7,11.6v20.3h6.8v-20.3c0-2.7,0.7-5.4,2.4-7.2c1.3-1.7,3.7-3.1,7.8-3.1s6.4,1.3,7.8,3.1   c1.3,1.7,2.4,4.4,2.4,7.2v6.8h-15.3l18.6,18.6l18.6-18.6H3410v-6.8c0-4.1-1.1-8.1-3.7-11.6   C3403.6,1274.5,3398.8,1272.5,3393,1272.5z"
   style="fill:#03a9f5;fill-opacity:1" />
        <path
   id="path4705_1_"
   inkscape:connector-curvature="0"
   sodipodi:nodetypes="cccccccccc"
   fill="#5A77A2"
   d="M3316.9,1272.5   l10.2,10.1l-11.8,11.8v18.3h6.8v-15.5l9.8-10.2l10.5,10.5v-25.4L3316.9,1272.5L3316.9,1272.5z"
   style="fill:#03a9f5;fill-opacity:1" />
        <path
   id="path4878_1_"
   inkscape:connector-curvature="0"
   sodipodi:nodetypes="ccccccccccc"
   fill="#5A77A2"
   d="M3264.5,1270.8v15.3   h-17l-3.5,3.5v20.3h6.8v-17h13.5v15.3l18.6-18.6L3264.5,1270.8z"
   style="fill:#03a9f5;fill-opacity:1" />
        <path
   id="path4886_1_"
   inkscape:connector-curvature="0"
   fill="#5A77A2"
   d="M3181.1,1272.5l-4.8,3.3v27.1h6.8v-19l15.5,15.3   l-10.5,10.5h25.4v-25.4l-10.2,10.2L3181.1,1272.5L3181.1,1272.5z"
   style="fill:#03a9f5;fill-opacity:1" />
        <path
   id="path4941_1_"
   inkscape:connector-curvature="0"
   sodipodi:nodetypes="cccccccccc"
   fill="#5A77A2"
   d="M3586,1272.5v25.4   l10.5-10.5l9.8,10.2v15.5h6.8v-18.3l-11.8-11.8l10.2-10.2L3586,1272.5L3586,1272.5z"
   style="fill:#03a9f5;fill-opacity:1" />
        <path
   id="path4945_1_"
   inkscape:connector-curvature="0"
   sodipodi:nodetypes="ccccccccccc"
   fill="#5A77A2"
   d="M3528.4,1270.8v15.3   h17l3.5,3.5v20.3h-6.8v-17h-13.5v15.3l-18.6-18.6L3528.4,1270.8z"
   style="fill:#03a9f5;fill-opacity:1" />
        <path
   id="path4947_1_"
   inkscape:connector-curvature="0"
   fill="#5A77A2"
   d="M3476.4,1272.5l-22,22l-10.1-10.2v25.4h25.4l-10.5-10.5   l15.5-15.3v19h6.8v-27.1L3476.4,1272.5L3476.4,1272.5z"
   style="fill:#03a9f5;fill-opacity:1" />
        <path
   id="path5026_1_"
   inkscape:connector-curvature="0"
   sodipodi:nodetypes="scccsccscccccss"
   fill="#5A77A2"
   d="M3735,1269   c-5,0-10.5,2-14.2,5.7c-7.8,7.8-7.8,21,0,28.8l4.8-4.8c-5.4-5.4-5.4-13.9,0-19c5.4-5.4,13.9-5.4,19,0c5.4,5.4,5.4,13.9,0,19   c-2.7,2.7-6.1,4.1-9.4,4.1h-3.5v13.5h6.8v-7.2c4.1-0.7,8.1-2.7,10.9-5.7c7.8-7.8,7.8-21,0-28.8   C3745.5,1270.8,3740.1,1269,3735,1269z"
   style="fill:#03a9f5;fill-opacity:1" />
        <g
   id="g5936_1_"
   transform="matrix(1,0,0,-1,1,2004.7244)"
   opacity="0.5"
   style="fill:#03a9f5;fill-opacity:1"></g>
        <g
   id="g5932_1_"
   transform="translate(1,-2)"
   style="fill:#03a9f5;fill-opacity:1"></g>
        <g
   id="g6038_1_"
   transform="matrix(1,0,0,-1,1,2024.7244)"
   style="fill:#03a9f5;fill-opacity:1"></g>
        <path
   style="fill:#03a9f5;fill-opacity:1"
   id="path6002-6-5-5_1_-4"
   inkscape:connector-curvature="0"
   sodipodi:nodetypes="cccccccc"
   d="m 3683.4,1296.3622 -18.6,18.6 -18.6,-18.6 h 15.3 v -23.6 h 6.8 v 23.6 z" />
        <path
   style="fill:#03a9f5;stroke-width:0.95075721;fill-opacity:1"
   id="path6002-6-5-5_1_-1"
   inkscape:connector-curvature="0"
   sodipodi:nodetypes="cccccccc"
   d="m 3816.4,1286.7177 -19.6,-15.9555 -19.6,15.9555 h 16.1226 v 20.2445 h 7.1656 v -20.2445 z" />
        <ellipse
   style="fill:#03a9f5;fill-opacity:1;fill-rule:evenodd;stroke-width:0.93541437"
   id="path960"
   cx="3797.3"
   cy="1306.1122"
   rx="9"
   ry="8.75" />
        <path
   style="fill:#03a9f5;stroke-width:0.95075721;fill-opacity:1"
   id="path6002-6-5-5_1_-1-3"
   inkscape:connector-curvature="0"
   sodipodi:nodetypes="cccccccc"
   d="m 3873.4,1298.2567 -19.6,15.9555 -19.6,-15.9555 h 16.1226 v -20.2445 h 7.1656 v 20.2445 z" />
        <ellipse
   style="fill:#03a9f5;fill-opacity:1;fill-rule:evenodd;stroke-width:0.93541437"
   id="path960-5"
   cx="3854.05"
   cy="1277.8622"
   rx="9"
   ry="8.75" />
        <path
   style="fill:#03a9f5;fill-opacity:1;stroke:#03a9f5;stroke-width:2.76167393;stroke-linecap:butt;stroke-linejoin:miter;stroke-miterlimit:4;stroke-dasharray:none;stroke-opacity:1;marker-end:url(#marker3807)"
   d="m 3906.2501,1279.356 v -2.7506"
   id="path835"
   inkscape:connector-curvature="0" />
        <path
   style="fill:none;stroke:#03a9f5;stroke-width:6;stroke-linecap:butt;stroke-linejoin:miter;stroke-miterlimit:4;stroke-dasharray:none;stroke-opacity:1"
   d="m 3906.2501,1279.356 0.8839,34.7198"
   id="path2089"
   inkscape:connector-curvature="0" />
        <path
   style="fill:#03a9f5;fill-opacity:1;stroke:#03a9f5;stroke-width:2.76167393;stroke-linecap:butt;stroke-linejoin:miter;stroke-miterlimit:4;stroke-dasharray:none;stroke-opacity:1;marker-end:url(#marker4019)"
   d="m 3926.3265,1307.541 v 2.7506"
   id="path835-9"
   inkscape:connector-curvature="0" />
        <path
   style="fill:none;stroke:#03a9f5;stroke-width:6;stroke-linecap:butt;stroke-linejoin:miter;stroke-miterlimit:4;stroke-dasharray:none;stroke-opacity:1"
   d="m 3926.3265,1305.541 0.8839,-34.7198"
   id="path2089-7"
   inkscape:connector-curvature="0" />
        <path
   style="fill:none;stroke:#03a9f5;stroke-width:3;stroke-linecap:butt;stroke-linejoin:miter;stroke-miterlimit:4;stroke-dasharray:none;stroke-opacity:1;marker-end:url(#marker2927)"
   d="m 3980.8343,1284.949 0.3509,21.9132"
   id="path2917"
   inkscape:connector-curvature="0" />
        <path
   style="fill:none;stroke:#03a9f5;stroke-width:6;stroke-linecap:butt;stroke-linejoin:miter;stroke-miterlimit:4;stroke-dasharray:none;stroke-opacity:1"
   d="m 4061.1335,1274.5049 -35.7952,37.5498"
   id="path4665"
   inkscape:connector-curvature="0" />
        <path
   style="fill:none;stroke:#03a9f5;stroke-width:6;stroke-linecap:butt;stroke-linejoin:miter;stroke-miterlimit:4;stroke-dasharray:none;stroke-opacity:1"
   d="m 4024.9874,1274.5049 35.7951,37.1989"
   id="path4667"
   inkscape:connector-curvature="0" />
        <path
   inkscape:connector-curvature="0"
   style="fill:#03a9f5;stroke-width:0.04121697;fill-opacity:1"
   d="m 4101.6621,1270.3105 c -7.8334,0 -14.181,6.888 -14.181,15.388 0,14.9482 13.2356,27.8447 13.7758,28.4309 0.135,0.1467 0.2702,0.1467 0.4052,0.1467 0.135,0 0.2702,0 0.4052,-0.1467 0.5402,-0.5862 13.7758,-13.4827 13.7758,-28.4309 0,-8.5 -6.3476,-15.388 -14.181,-15.388 z m 7.4282,15.6811 c -0.1351,0.293 -0.4051,0.4396 -0.6753,0.4396 h -0.6754 v 6.5948 c 0,0.4397 -0.27,0.7329 -0.6752,0.7329 h -4.0517 c -0.4052,0 -0.6753,-0.2932 -0.6753,-0.7329 v -5.1293 h -1.3506 v 5.1293 c 0,0.4397 -0.2701,0.7329 -0.6753,0.7329 h -4.0517 c -0.4052,0 -0.6752,-0.2932 -0.6752,-0.7329 v -6.5948 h -0.6754 c -0.2702,0 -0.5402,-0.1466 -0.6753,-0.4396 -0.135,-0.2931 0,-0.5862 0.1351,-0.7328 l 6.7529,-7.3276 c 0.27,-0.2931 0.6752,-0.2931 0.9454,0 l 6.7529,7.3276 c 0.2701,0.1466 0.2701,0.4397 0.2701,0.7328 z"
   p-id="1928"
   id="path1041" />
        <path
   style="stroke-width:0.04347624"
   inkscape:connector-curvature="0"
   d="m 4152.5975,1270.0346 c -8.6072,0 -15.5819,6.9747 -15.5819,15.5819 0,15.1367 14.543,28.1957 15.1367,28.7893 0.1484,0.1485 0.2968,0.1485 0.4452,0.1485 0.1484,0 0.2968,0 0.4452,-0.1485 0.5936,-0.5936 15.1367,-13.6526 15.1367,-28.7893 0,-8.6072 -6.9748,-15.5819 -15.5819,-15.5819 z m 0,7.4199 c 4.452,0 8.162,3.71 8.162,8.162 0,4.452 -3.71,8.162 -8.162,8.162 -4.452,0 -8.162,-3.71 -8.162,-8.162 0,-4.452 3.71,-8.162 8.162,-8.162 z"
   fill="#03a9f5"
   p-id="2078"
   id="path6" />
        <path
   style="stroke-width:0.04353643"
   inkscape:connector-curvature="0"
   d="m 4193.426,1291.0548 c 0.1486,0 0.4459,0 0.5945,-0.1487 l 7.4301,-7.4302 c 0.2973,-0.2971 0.2973,-0.743 0,-1.0402 -0.2971,-0.2972 -0.7429,-0.2972 -1.0401,0 l -6.9845,6.8359 -3.8636,-3.8638 c -0.2973,-0.2972 -0.743,-0.2972 -1.0403,0 -0.2972,0.2972 -0.2972,0.743 0,1.0402 l 4.4582,4.4581 c 0,0.1487 0.2972,0.1487 0.4457,0.1487 z"
   fill="#03a9f5"
   p-id="1811"
   id="path6-1" />
        <path
   style="stroke-width:0.04353643"
   inkscape:connector-curvature="0"
   d="m 4200.9121,1270.0346 c -8.6191,0 -15.6035,6.9845 -15.6035,15.6035 0,15.1577 14.5633,28.2348 15.1576,28.8293 0.1486,0.1486 0.2973,0.1486 0.4459,0.1486 0.1486,0 0.2972,0 0.4458,-0.1486 0.5944,-0.5945 15.1577,-13.6716 15.1577,-28.8293 0,-8.619 -6.9844,-15.6035 -15.6035,-15.6035 z m 0,7.4302 c 4.4582,0 8.1733,3.7152 8.1733,8.1733 0,4.4582 -3.7151,8.1733 -8.1733,8.1733 -4.4581,0 -8.1733,-3.7151 -8.1733,-8.1733 0,-4.4581 3.7152,-8.1733 8.1733,-8.1733 z"
   fill="#03a9f5"
   p-id="1812"
   id="path8" />
        <path
   style="fill:none;stroke:#03a9f5;stroke-width:7;stroke-linecap:butt;stroke-linejoin:miter;stroke-miterlimit:4;stroke-dasharray:none;stroke-opacity:1"
   d="m 4233.3522,1291.376 h 41.3231"
   id="path1045"
   inkscape:connector-curvature="0" />
        <path
   style="fill:none;stroke:#03a9f5;stroke-width:7;stroke-linecap:butt;stroke-linejoin:miter;stroke-miterlimit:4;stroke-dasharray:none;stroke-opacity:1"
   d="m 4253.525,1272.1289 v 40.8415"
   id="path1047"
   inkscape:connector-curvature="0" />
    </g>
</svg>