<?xml version="1.0" standalone="no"?><!DOCTYPE svg PUBLIC "-//W3C//DTD SVG 1.1//EN" "http://www.w3.org/Graphics/SVG/1.1/DTD/svg11.dtd"><svg t="1556617555696" class="icon" style="" viewBox="0 0 1024 1024" version="1.1" xmlns="http://www.w3.org/2000/svg" p-id="6121" data-spm-anchor-id="a313x.7781069.0.i1" xmlns:xlink="http://www.w3.org/1999/xlink" width="16" height="16"><defs><style type="text/css"></style></defs><path d="M768 691.2v-512a51.2 51.2 0 1 1 102.4 0v512H1024L819.2 896l-204.8-204.8H768zM51.2 128H512a51.2 51.2 0 1 1 0 102.4H51.2a51.2 51.2 0 1 1 0-102.4z m0 307.2H512a51.2 51.2 0 1 1 0 102.4H51.2a51.2 51.2 0 1 1 0-102.4z m0 307.2H512a51.2 51.2 0 1 1 0 102.4H51.2a51.2 51.2 0 1 1 0-102.4z" fill="#ffffff" p-id="6122"></path></svg>