<?xml version="1.0" standalone="no"?><!DOCTYPE svg PUBLIC "-//W3C//DTD SVG 1.1//EN" "http://www.w3.org/Graphics/SVG/1.1/DTD/svg11.dtd"><svg t="1556605411462" class="icon" style="" viewBox="0 0 1024 1024" version="1.1" xmlns="http://www.w3.org/2000/svg" p-id="2596" xmlns:xlink="http://www.w3.org/1999/xlink" width="16" height="16"><defs><style type="text/css"></style></defs><path d="M121.173333 221.866667v-17.066667a31.715556 31.715556 0 0 1 28.444445-34.133333h711.111111a31.715556 31.715556 0 0 1 28.444444 34.133333v17.066667a31.715556 31.715556 0 0 1-28.444444 34.133333h-711.111111a31.715556 31.715556 0 0 1-28.444445-34.133333z m369.777778 247.466666h-341.333333a31.715556 31.715556 0 0 0-28.444445 34.133334v17.066666a31.715556 31.715556 0 0 0 28.444445 34.133334h341.333333a31.715556 31.715556 0 0 0 28.444445-34.133334v-17.066666a31.715556 31.715556 0 0 0-28.444445-34.133334z m0 298.666667h-341.333333a31.715556 31.715556 0 0 0-28.444445 34.133333v17.066667a31.715556 31.715556 0 0 0 28.444445 34.133333h341.333333a31.715556 31.715556 0 0 0 28.444445-34.133333v-17.066667a31.715556 31.715556 0 0 0-28.444445-34.133333z m408.746667-186.595556l-126.72-160.995555a14.222222 14.222222 0 0 0-22.755556 0l-115.342222 161.564444a14.222222 14.222222 0 0 0 11.52 22.471111h86.328889v227.555556a14.222222 14.222222 0 0 0 14.222222 14.222222h42.666667a14.222222 14.222222 0 0 0 14.222222-14.222222v-227.555556h85.333333a14.222222 14.222222 0 0 0 10.524445-23.04z" fill="#ffffff" p-id="2597"></path></svg>