<?xml version="1.0" standalone="no"?><!DOCTYPE svg PUBLIC "-//W3C//DTD SVG 1.1//EN" "http://www.w3.org/Graphics/SVG/1.1/DTD/svg11.dtd"><svg t="1556617367081" class="icon" style="" viewBox="0 0 1092 1024" version="1.1" xmlns="http://www.w3.org/2000/svg" p-id="1970" xmlns:xlink="http://www.w3.org/1999/xlink" width="17.0625" height="16"><defs><style type="text/css"></style></defs><path d="M488.106667 120.558933H58.231467a56.661333 56.661333 0 0 0-56.866134 56.388267c0 31.402667 25.463467 56.456533 56.866134 56.456533H488.106667a56.661333 56.661333 0 0 0 56.866133-56.456533 56.661333 56.661333 0 0 0-56.866133-56.388267z m0 338.602667H58.231467a56.661333 56.661333 0 0 0-56.866134 56.456533c0 31.402667 25.463467 56.456533 56.866134 56.456534H488.106667a56.661333 56.661333 0 0 0 56.866133-56.456534 56.661333 56.661333 0 0 0-56.866133-56.456533z m0 338.670933H58.231467a56.661333 56.661333 0 0 0-56.866134 56.456534c0 31.402667 25.463467 56.456533 56.866134 56.456533H488.106667a56.661333 56.661333 0 0 0 56.866133-56.456533 56.5248 56.5248 0 0 0-56.866133-56.456534z m599.722666-428.8512L853.1968 30.242133s-17.066667-29.354667-34.133333-29.354666c-14.7456-2.184533-34.133333 29.354667-34.133334 29.354666L550.365867 369.117867c-5.188267 7.441067-4.164267 22.254933 7.236266 22.254933h204.663467v575.488c0 31.5392 25.463467 56.661333 56.797867 56.661333a56.661333 56.661333 0 0 0 56.866133-56.661333v-575.488h204.731733c11.4688 0 12.424533-14.882133 7.236267-22.391467z" p-id="1971" fill="#ffffff"></path></svg>