<?xml version="1.0" standalone="no"?><!DOCTYPE svg PUBLIC "-//W3C//DTD SVG 1.1//EN" "http://www.w3.org/Graphics/SVG/1.1/DTD/svg11.dtd"><svg t="1557998919901" class="icon" style="" viewBox="0 0 1024 1024" version="1.1" xmlns="http://www.w3.org/2000/svg" p-id="1967" xmlns:xlink="http://www.w3.org/1999/xlink" width="18" height="18"><defs><style type="text/css"></style></defs><path d="M124.3 860h775.5L512 139.9 124.3 860zM512 760c-19.9 0-36-16.1-36-36s16.1-36 36-36 36 16.1 36 36-16.1 36-36 36z m36-340v160c0 19.9-16.1 36-36 36s-36-16.1-36-36V420c0-19.9 16.1-36 36-36s36 16.1 36 36z" fill="#FFEB3B" p-id="1968"></path><path d="M991.7 878.9l-448-832C537.4 35.3 525.2 28 512 28s-25.4 7.3-31.7 18.9l-448 832c-6 11.2-5.7 24.6 0.8 35.5C39.6 925.3 51.3 932 64 932h896c12.7 0 24.4-6.7 30.9-17.5 6.5-10.9 6.8-24.4 0.8-35.6zM124.3 860L512 139.9 899.7 860H124.3z" fill="#FF9800" p-id="1969"></path><path d="M476 420v160c0 19.9 16.1 36 36 36s36-16.1 36-36V420c0-19.9-16.1-36-36-36s-36 16.1-36 36z" fill="#FF5722" p-id="1970"></path><path d="M512 724m-36 0a36 36 0 1 0 72 0 36 36 0 1 0-72 0Z" fill="#FF5722" p-id="1971"></path></svg>